<?xml version="1.0" encoding="UTF-8" standalone="no"?>
<!-- Created with Inkscape (http://www.inkscape.org/) -->

<svg
   xmlns:dc="http://purl.org/dc/elements/1.1/"
   xmlns:cc="http://creativecommons.org/ns#"
   xmlns:rdf="http://www.w3.org/1999/02/22-rdf-syntax-ns#"
   xmlns:svg="http://www.w3.org/2000/svg"
   xmlns="http://www.w3.org/2000/svg"
   xmlns:sodipodi="http://sodipodi.sourceforge.net/DTD/sodipodi-0.dtd"
   xmlns:inkscape="http://www.inkscape.org/namespaces/inkscape"
   version="1.1"
   id="svg2"
   width="341.33334"
   height="341.33334"
   viewBox="0 0 341.33334 341.33334"
   sodipodi:docname="connect.svg"
   inkscape:version="0.92.4 (5da689c313, 2019-01-14)">
  <metadata
     id="metadata8">
    <rdf:RDF>
      <cc:Work
         rdf:about="">
        <dc:format>image/svg+xml</dc:format>
        <dc:type
           rdf:resource="http://purl.org/dc/dcmitype/StillImage" />
        <dc:title />
      </cc:Work>
    </rdf:RDF>
  </metadata>
  <defs
     id="defs6" />
  <sodipodi:namedview
     pagecolor="#ffffff"
     bordercolor="#666666"
     borderopacity="1"
     objecttolerance="10"
     gridtolerance="10"
     guidetolerance="10"
     inkscape:pageopacity="0"
     inkscape:pageshadow="2"
     inkscape:window-width="1920"
     inkscape:window-height="1051"
     id="namedview4"
     showgrid="false"
     inkscape:zoom="0.97779607"
     inkscape:cx="-484.00301"
     inkscape:cy="16.17301"
     inkscape:window-x="-9"
     inkscape:window-y="-9"
     inkscape:window-maximized="1"
     inkscape:current-layer="svg2" />
  <path
     style="fill:#ee9b00;stroke-width:0.66666669;fill-opacity:1"
     d="m -159.62193,415.37692 c -7.14576,-1.16192 -13.887,-6.35848 -17.07705,-13.16405 -1.54355,-3.29297 -1.77788,-4.63935 -1.7632,-10.131 0.0143,-5.34013 0.27231,-6.85607 1.64538,-9.66667 1.94296,-3.97711 6.70423,-8.91604 10.17103,-10.55054 l 2.5,-1.17868 v -29.53959 -29.5396 l -4.5,-1.10223 c -4.2407,-1.03871 -12.93642,-4.89485 -16.99978,-7.53858 l -1.83311,-1.19267 -23.52201,23.48761 -23.522,23.48762 h -2.87536 c -3.57023,0 -6.41541,-1.61981 -7.73697,-4.4048 -1.19193,-2.5118 -1.26701,-4.15926 -0.30617,-6.71847 0.38753,-1.03221 10.95021,-12.14524 23.47262,-24.69563 l 22.76802,-22.8189 -1.51525,-2.51443 c -6.2186,-10.31922 -8.39918,-18.1781 -8.37429,-30.18111 l 0.0187,-9 -19.35162,-15.04647 -19.35162,-15.04647 -3.35224,1.32737 c -4.16389,1.64876 -12.04311,1.7361 -16.25692,0.18021 -9.79623,-3.61711 -15.94782,-13.05699 -15.28089,-23.44917 1.24479,-19.39655 24.39838,-28.72617 38.74657,-15.61272 4.99392,4.56416 7.38058,9.92306 7.41409,16.64725 0.0137,2.75 -0.12508,5.73283 -0.30841,6.62851 -0.29885,1.46003 1.41962,2.99462 16.6107,14.83333 9.31921,7.26265 17.16571,13.20483 17.43665,13.20483 0.27095,0 1.32742,-1.42448 2.34773,-3.1655 2.86342,-4.88606 11.31447,-12.90832 17.27219,-16.39583 4.68629,-2.74325 11.86375,-5.55553 17.16607,-6.72603 l 1.83333,-0.40471 V 176.08935 146.7889 l -4.83333,-2.24733 c -8.25578,-3.83866 -14.19584,-10.33341 -17.23727,-18.84686 -2.01431,-5.6384 -2.03333,-15.14068 -0.0411,-20.55903 4.92436,-13.393297 16.37446,-21.720442 30.11173,-21.898925 14.91383,-0.193769 27.66078,9.461 31.68529,23.999015 1.45408,5.25264 1.07937,13.60243 -0.85076,18.958 -3.29354,9.13864 -11.6069,17.1099 -21.0012,20.13699 -1.0877,0.35048 -1.16666,2.35798 -1.16666,29.65837 v 29.28244 l 4.82944,1.18352 c 7.77628,1.90568 16.88365,6.86239 22.85481,12.4388 12.62731,11.79251 18.28887,25.46471 17.45545,42.15346 -0.42645,8.53943 -1.58792,13.39814 -4.8689,20.36785 -6.60421,14.02913 -20.69258,25.62822 -35.31548,29.07557 l -4.95532,1.16822 v 29.4213 29.4213 l 2.36807,1.12925 c 4.01767,1.9159 8.63596,6.79556 10.68983,11.29482 2.68016,5.8712 2.67285,13.00095 -0.0195,18.97112 -4.31427,9.56693 -14.78276,15.17095 -25.18129,13.48014 z m 8.69262,-18.20948 c 0.88954,-0.88896 1.70259,-2.68792 1.90843,-4.22262 0.306,-2.28145 0.0786,-2.98242 -1.5498,-4.77681 -3.12464,-3.44319 -8.94498,-3.08821 -10.95533,0.66817 -0.97845,1.82824 -0.96243,5.35972 0.0327,7.2192 1.84115,3.44022 7.62506,4.04908 10.56397,1.11206 z m 7.78354,-103.63641 c 8.87691,-3.22912 16.97067,-10.58468 20.90219,-18.99578 2.66091,-5.69277 3.50534,-9.68678 3.49446,-16.5282 -0.0165,-10.35716 -4.03764,-19.40951 -11.81246,-26.59185 -7.74858,-7.15809 -16.61622,-10.39401 -26.91752,-9.82257 -20.69334,1.14793 -36.32738,18.42431 -35.13198,38.82257 0.94937,16.20021 11.76571,29.66701 27.31498,34.00832 5.21958,1.45729 16.99504,0.98283 22.15033,-0.89249 z m -113.45618,-89.52719 c 2.38524,-1.21982 3.75893,-3.43178 3.77468,-6.07812 0.0353,-5.93541 -7.34447,-8.96941 -11.56093,-4.75295 -5.15907,5.15907 1.30222,14.14704 7.78625,10.83107 z m 104.36589,-73.29213 c 4.57582,-1.05504 8.39026,-4.0808 10.44887,-8.28844 1.53897,-3.14554 1.75409,-4.30099 1.52091,-8.16924 -0.33425,-5.54507 -2.5104,-9.33329 -6.99548,-12.17763 -10.4791,-6.645654 -24.24088,1.09855 -24.21083,13.62422 0.0136,5.66076 4.97519,12.66746 10.10297,14.26723 4.9086,1.53139 5.50672,1.5801 9.13356,0.74386 z m -130.24305,278.10371 c -6.29651,-1.72546 -10.58608,-4.23654 -15.16122,-8.87529 -6.17425,-6.26008 -9.17211,-13.62226 -9.17211,-22.52493 0,-17.76053 14.32804,-32 32.19905,-32 21.83042,0 37.52223,21.82873 30.45602,42.36705 -5.45118,15.84412 -22.70338,25.31311 -38.32174,21.03317 z m 12.58932,-16.21096 c 3.95102,-1.16736 9.23141,-6.61506 10.37023,-10.69879 2.12102,-7.60585 -1.7955,-15.87437 -8.93103,-18.8551 -3.49923,-1.46174 -9.54391,-1.41939 -12.72288,0.0891 -5.63002,2.67161 -9.09911,8.06029 -9.13629,14.19175 -0.0406,6.69581 3.06822,11.61312 9.16398,14.49489 3.71099,1.75438 7.1477,1.99195 11.25599,0.77812 z M -88.970723,249.70494 c -5.14709,-2.79278 -4.99969,-11.28911 0.24288,-14.00015 1.13412,-0.58648 14.25404,-5.21406 29.15538,-10.28351 14.90135,-5.06945 27.57866,-9.41155 28.1718,-9.64911 0.76139,-0.30494 1.20577,-1.67471 1.51155,-4.6593 1.46232,-14.273 10.05239,-24.85678 23.5607999,-29.0291 13.52204,-4.17654 29.1049801,2.11019 36.4981201,14.72468 7.32154,12.4923 5.26115,28.88979 -4.87783,38.82 -9.12827,8.9403 -22.3409901,12.00604 -33.5956001,7.79515 -5.2125499,-1.95027 -11.1821799,-6.05691 -13.9281599,-9.58149 l -2.27865,-2.92475 -28.98433,9.89265 c -15.94139,5.44096 -30.03434,9.89096 -31.31768,9.8889 -1.28333,-0.002 -3.15456,-0.44936 -4.15828,-0.99397 z M 7.4014169,228.03379 c 1.40095,-0.38903 3.7740101,-1.81236 5.2734701,-3.16296 10.79412,-9.72252 4.23584,-27.38394 -10.1897601,-27.44099 -6.88284,-0.0272 -12.6380099,4.05881 -14.9511499,10.61496 -1.95345,5.53666 -0.63697,11.49379 3.4758999,15.72869 4.36041,4.48976 10.14803,5.99402 16.39154,4.2603 z"
     id="path817"
     inkscape:connector-curvature="0"
     inkscape:export-xdpi="96"
     inkscape:export-ydpi="96" />
</svg>
