<svg width="24" height="24" viewBox="0 0 24 24" fill="currentColor" xmlns="http://www.w3.org/2000/svg">
<path d="M21.4429 11.9979C21.4429 12.8441 21.2653 13.6587 20.9405 14.4178L19.4032 13.1966C19.5038 12.802 19.5544 12.4005 19.5543 11.9979V10.4976C19.5543 10.2987 19.6538 10.1079 19.8309 9.96722C20.008 9.82654 20.2481 9.74751 20.4986 9.74751C20.749 9.74751 20.9892 9.82654 21.1663 9.96722C21.3434 10.1079 21.4429 10.2987 21.4429 10.4976V11.9979ZM12 17.999C13.5449 17.999 14.9802 17.6314 16.1775 16.9983L17.5335 18.077C16.1854 18.8536 14.6015 19.3315 12.9443 19.4617V22.4997H18.61C18.8604 22.4997 19.1006 22.5788 19.2777 22.7194C19.4548 22.8601 19.5543 23.0509 19.5543 23.2499C19.5543 23.4488 19.4548 23.6396 19.2777 23.7803C19.1006 23.921 18.8604 24 18.61 24H5.38999C5.13955 24 4.89937 23.921 4.72228 23.7803C4.54519 23.6396 4.4457 23.4488 4.4457 23.2499C4.4457 23.0509 4.54519 22.8601 4.72228 22.7194C4.89937 22.5788 5.13955 22.4997 5.38999 22.4997H11.0557V19.4617C8.7265 19.2757 6.56728 18.4091 4.99694 17.03C3.4266 15.6509 2.5571 13.8575 2.55713 11.9979V10.4976C2.55713 10.2987 2.65662 10.1079 2.8337 9.96722C3.01079 9.82654 3.25098 9.74751 3.50142 9.74751C3.75186 9.74751 3.99204 9.82654 4.16913 9.96722C4.34622 10.1079 4.4457 10.2987 4.4457 10.4976V11.9979C4.4457 13.5895 5.2416 15.1159 6.6583 16.2413C8.07501 17.3667 9.99647 17.999 12 17.999ZM17.6657 4.49659V11.8164L6.63267 3.05184C7.06505 2.04253 7.93427 1.18785 9.08562 0.639968C10.237 0.0920868 11.5957 -0.113446 12.9199 0.0599598C14.2442 0.233366 15.448 0.774457 16.317 1.58691C17.1861 2.39935 17.664 3.43044 17.6657 4.49659Z"/>
<path d="M14.8064 15.9091L6.33428 9.17743V11.9979C6.33398 12.786 6.5942 13.5604 7.08891 14.2435C7.58361 14.9267 8.29545 15.4947 9.15322 15.8907C10.011 16.2866 10.9846 16.4968 11.9767 16.5C12.9688 16.5032 13.9446 16.2995 14.8064 15.9091ZM0 2.02718L22.6629 20.0303L24 18.9681L1.33711 0.964996L0 2.02718Z"/>
</svg>
