<svg width="24" height="24" viewBox="0 0 24 12" fill="none" xmlns="http://www.w3.org/2000/svg">
<path d="M23.7069 9.67107L23.9435 8.11959C24.0546 7.34625 24.0013 6.55175 23.7885 5.8097C23.5757 5.06766 23.2103 4.40208 22.7262 3.87462C20.3739 1.28196 16.6998 -0.00819153 11.7022 3.91314e-05C6.71306 0.0082698 3.1504 1.30871 1.01417 3.89932C0.108932 4.99605 -0.220246 6.62367 0.148365 8.16897L0.51869 9.72045C0.865012 11.169 2.03428 12.1382 3.25155 11.9839L5.69295 11.6773C6.20046 11.6174 6.67727 11.3579 7.04931 10.9393C7.42134 10.5207 7.66777 9.96639 7.75032 9.36242L8.22008 6.06192C9.4003 5.39904 10.6824 5.03749 11.9851 5.00017C13.3343 4.95078 14.5705 5.21211 15.6917 5.7862L16.4495 9.31304C16.7221 10.5826 17.6325 11.5312 18.7041 11.6588L21.1592 11.9551C21.746 12.0345 22.336 11.8424 22.809 11.4181C23.282 10.9938 23.6025 10.369 23.7052 9.67107H23.7069Z" fill="#ffffff"/>
</svg>
