<svg width="16" height="16" viewBox="0 0 16 16" fill="none" xmlns="http://www.w3.org/2000/svg">
<path d="M15.3311 6.90951L1.72303 0.112287C1.53945 0.0273179 1.33751 -0.0104323 1.1356 0.00247302C0.933683 0.0153783 0.738206 0.0785293 0.566962 0.186177C0.395717 0.293825 0.254143 0.442551 0.155127 0.618817C0.0561113 0.795082 0.00279827 0.993289 4.11473e-05 1.19539V14.784C-0.00167327 14.9915 0.0502128 15.1958 0.150685 15.3774C0.251156 15.559 0.396816 15.7116 0.573584 15.8205C0.750353 15.9294 0.952253 15.9909 1.15977 15.9991C1.36729 16.0072 1.5734 15.9618 1.75819 15.8671L15.3311 9.06987C15.5322 8.96905 15.7012 8.81436 15.8193 8.62309C15.9374 8.43182 16 8.2115 16 7.98676C16 7.76202 15.9374 7.54171 15.8193 7.35044C15.7012 7.15917 15.5322 7.00448 15.3311 6.90366V6.90951Z" fill="black"/>
</svg>
