<svg width="24" height="20" viewBox="0 0 24 20" fill="none" xmlns="http://www.w3.org/2000/svg">
<path d="M12 0C12.5105 0.00285912 13.014 0.131971 13.474 0.377968C13.934 0.623964 14.339 0.980675 14.6595 1.42222L23.0778 12.7556C23.5698 13.4378 23.8793 14.26 23.9712 15.1283C24.0632 15.9966 23.9337 16.8761 23.5977 17.6667C23.3252 18.3537 22.8805 18.9391 22.3168 19.3528C21.753 19.7666 21.0939 19.9913 20.4184 20L3.58164 20C2.90606 19.9913 2.24703 19.7666 1.68324 19.3528C1.11946 18.9391 0.674767 18.3537 0.40226 17.6667C0.0662594 16.8761 -0.0631561 15.9966 0.0287628 15.1283C0.120684 14.26 0.430239 13.4378 0.922155 12.7556L9.34052 1.42222C9.66105 0.980675 10.066 0.623964 10.526 0.377968C10.986 0.131971 11.4895 0.00285912 12 0Z" fill="#EE9B00"/>
</svg>
